<svg width="60" height="60" viewBox="0 0 60 60" fill="none" xmlns="http://www.w3.org/2000/svg">
<path d="M25.4794 46.5209H32.646V32.1697H39.1032L39.8127 25.0388H32.646V21.4376C32.646 20.9624 32.8348 20.5067 33.1708 20.1707C33.5068 19.8347 33.9625 19.6459 34.4377 19.6459H39.8127V12.4792H34.4377C32.0618 12.4792 29.7832 13.4231 28.1032 15.1031C26.4232 16.7831 25.4794 19.0617 25.4794 21.4376V25.0388H21.896L21.1865 32.1697H25.4794V46.5209Z" fill="white"/>
<path d="M60 30C60 46.5685 46.5685 60 30 60C13.4315 60 0 46.5685 0 30C0 13.4315 13.4315 0 30 0C46.5685 0 60 13.4315 60 30ZM3 30C3 44.9117 15.0883 57 30 57C44.9117 57 57 44.9117 57 30C57 15.0883 44.9117 3 30 3C15.0883 3 3 15.0883 3 30Z" fill="white"/>
</svg>
