<svg width="60" height="60" viewBox="0 0 60 60" fill="none" xmlns="http://www.w3.org/2000/svg">
<g clip-path="url(#clip0_367_1248)">
<mask id="mask0_367_1248" style="mask-type:luminance" maskUnits="userSpaceOnUse" x="15" y="15" width="30" height="30">
<path d="M15 15H45V45H15V15Z" fill="white"/>
</mask>
<g mask="url(#mask0_367_1248)">
<path d="M38.625 16.4058H43.2257L33.1757 27.9215L45 43.5943H35.7429L28.4871 34.0908L20.1943 43.5943H15.5893L26.3379 31.2729L15 16.4079H24.4929L31.0414 25.0929L38.625 16.4058ZM37.0071 40.8343H39.5571L23.1 19.0222H20.3657L37.0071 40.8343Z" fill="white"/>
</g>
</g>
<path d="M60 30C60 46.5685 46.5685 60 30 60C13.4315 60 0 46.5685 0 30C0 13.4315 13.4315 0 30 0C46.5685 0 60 13.4315 60 30ZM3 30C3 44.9117 15.0883 57 30 57C44.9117 57 57 44.9117 57 30C57 15.0883 44.9117 3 30 3C15.0883 3 3 15.0883 3 30Z" fill="white"/>
<defs>
<clipPath id="clip0_367_1248">
<rect width="30" height="30" fill="white" transform="translate(15 15)"/>
</clipPath>
</defs>
</svg>
